<svg width="40" height="40" viewBox="0 0 40 40" fill="none" xmlns="http://www.w3.org/2000/svg">
<path d="M20 39.9998C31.0155 39.9998 40 31.0155 40 20C40 8.9843 31.0157 0 20 0C8.9843 0 0 8.9843 0 19.9999C0 31.0154 8.9843 39.9998 20 39.9998Z" fill="#FFD240"/>
<path d="M25.5159 30.0348V25.9316H14.9648V30.0348L20.2404 34.7242L25.5159 30.0348Z" fill="#FFD7A3"/>
<path d="M20.2393 33.5518L26.1143 30.125C26.2085 30.178 26.3094 30.2213 26.4189 30.2471L33.6729 31.9541C34.3076 32.1035 34.8292 32.5038 35.1465 33.0342C31.4739 37.2945 26.0425 40 19.999 40C14.1227 40 8.82484 37.4426 5.16016 33.3848C5.4343 32.6825 6.03822 32.135 6.80664 31.9541L14.0605 30.2471C14.2664 30.1985 14.4477 30.0965 14.5938 29.959L20.2393 33.5518Z" fill="#8B63E7"/>
<path d="M14.9648 25.9317V30.2609C21.6106 32.6553 25.5159 26.6627 25.5159 26.6627V25.9316H14.9648V25.9317Z" fill="#F0C290"/>
<path d="M12.6191 12.4492L13.1299 23.6869C13.1776 24.7367 13.6924 25.7103 14.5331 26.3408L16.9568 28.1586C17.5656 28.6152 18.306 28.8621 19.067 28.8621H21.4117C22.1727 28.8621 22.9132 28.6152 23.522 28.1586L25.9456 26.3408C26.7863 25.7102 27.3011 24.7368 27.3488 23.6869L27.8596 12.4492C27.8595 12.4492 12.6191 12.4492 12.6191 12.4492Z" fill="#FFE1B2"/>
<path d="M21.7002 39.9258C21.1393 39.9734 20.5719 40 19.999 40C19.5888 40 19.1816 39.9855 18.7773 39.9609L19.1416 34.7246H21.3389L21.7002 39.9258Z" fill="#5B5D6E"/>
<path d="M21.7043 33.5527H18.7734V34.6559C18.7734 35.0179 19.0668 35.3113 19.4288 35.3113H21.0489C21.4109 35.3113 21.7043 35.0179 21.7043 34.6559V33.5527H21.7043Z" fill="#515262"/>
<path d="M14.8812 28.7306L20.2391 33.5526C20.2391 33.5526 18.7386 34.3101 16.8869 35.8369C16.505 36.1518 15.9272 36.0242 15.7223 35.5735L13.2051 30.0357L14.0014 28.8412C14.1996 28.5437 14.6155 28.4915 14.8812 28.7306Z" fill="white"/>
<path d="M25.5962 28.7306L20.2383 33.5526C20.2383 33.5526 21.7388 34.3101 23.5904 35.8369C23.9724 36.1518 24.5502 36.0242 24.7551 35.5735L27.2723 30.0357L26.476 28.8412C26.2777 28.5437 25.8618 28.4915 25.5962 28.7306Z" fill="white"/>
<path d="M23.793 8.56728L24.3425 12.4507C26.851 12.9524 27.2125 16.8891 27.2645 18.0134C27.274 18.2175 27.3391 18.4145 27.4498 18.5862L28.4069 20.0709C28.4069 20.0709 28.0793 17.6163 29.5792 15.9677C29.5793 15.9677 30.0943 6.22256 23.793 8.56728Z" fill="#4E1E30"/>
<path d="M28.9944 19.8192L28.3326 22.4662C28.2542 22.7799 27.9724 22.9999 27.6489 22.9999C27.2934 22.9999 26.9937 22.7353 26.9496 22.3826L26.6111 19.6753C26.5205 18.9506 27.0855 18.3105 27.8159 18.3105H27.8164C28.6063 18.3106 29.1859 19.0528 28.9944 19.8192Z" fill="#FFE1B2"/>
<path d="M13.1812 7.51605L14.0482 8.10832C10.1282 11.0025 10.8609 15.9667 10.8609 15.9667C12.0332 17.139 12.0332 20.0699 12.0332 20.0699L13.2055 18.8976C13.2055 18.8976 12.7531 15.511 14.964 14.2082C17.0156 12.9992 18.8108 13.6221 20.6426 13.6221C25.5518 13.6221 26.9256 11.7719 26.6875 9.51885C26.5642 8.35303 24.7818 5.92457 20.2396 6.0018C18.4066 6.03294 14.9642 6.58796 13.1812 7.51605Z" fill="#66273F"/>
<path d="M12.8392 13.1082C12.8392 13.1082 12.2164 10.6536 14.0482 8.10742C10.1282 11.0016 10.8609 15.9658 10.8609 15.9658C12.0332 17.1381 12.0332 20.069 12.0332 20.069L13.2055 18.8967C13.2055 18.8967 12.7531 15.5101 14.964 14.2073C17.0156 12.9983 18.8108 13.6212 20.6426 13.6212C21.441 13.6212 22.1367 13.5677 22.7564 13.4761C18.9758 13.6028 16.7472 10.739 12.8392 13.1082Z" fill="#4E1E30"/>
<path d="M11.4841 19.8192L12.1458 22.4662C12.2243 22.7799 12.5061 22.9999 12.8296 22.9999C13.185 22.9999 13.4848 22.7353 13.5289 22.3826L13.8674 19.6753C13.9579 18.9506 13.3929 18.3105 12.6626 18.3105H12.6621C11.8721 18.3106 11.2925 19.0528 11.4841 19.8192Z" fill="#FFE1B2"/>
</svg>
